<?xml version="1.0" standalone="no"?>
<!DOCTYPE svg PUBLIC "-//W3C//DTD SVG 20010904//EN"
 "http://www.w3.org/TR/2001/REC-SVG-20010904/DTD/svg10.dtd">
<svg version="1.0" xmlns="http://www.w3.org/2000/svg"
 width="128.000000pt" height="128.000000pt" viewBox="0 0 128.000000 128.000000"
 preserveAspectRatio="xMidYMid meet">
<metadata>
Created by potrace 1.11, written by Peter Selinger 2001-2013
</metadata>
<g transform="translate(0.000000,128.000000) scale(0.100000,-0.100000)"
fill="#000000" stroke="none">
<path d="M968 1254 c-2 -2 -53 -6 -114 -10 -60 -3 -129 -7 -154 -9 -280 -20
-269 -19 -397 -40 -201 -34 -273 -57 -291 -93 -8 -13 -9 -97 -2 -97 1 0 4 -13
6 -30 3 -16 11 -55 19 -85 18 -71 27 -123 29 -182 2 -52 8 -63 30 -55 15 6 14
43 -3 76 -17 32 -44 179 -57 308 l-7 63 37 15 c44 19 234 64 261 63 20 0 143
7 300 19 76 5 196 9 368 13 44 1 84 -4 91 -9 15 -12 41 -139 51 -246 4 -38 9
-77 10 -86 2 -9 6 -34 9 -55 4 -21 13 -66 20 -99 13 -57 18 -88 31 -195 3 -25
9 -69 14 -98 9 -57 8 -115 -3 -149 -14 -42 -86 -72 -211 -87 -27 -4 -61 -8
-75 -11 -14 -3 -41 -7 -60 -10 -19 -3 -60 -12 -91 -20 -30 -8 -84 -19 -120
-24 -35 -6 -116 -20 -179 -31 -63 -12 -137 -22 -165 -23 l-50 -2 -26 53 c-36
74 -53 89 -45 37 20 -117 38 -140 99 -131 17 3 55 8 82 11 28 2 84 12 125 20
41 9 102 18 135 22 33 3 82 12 110 19 89 25 178 43 265 53 110 13 211 45 239
74 28 31 35 87 22 185 -6 42 -13 102 -16 132 -6 61 -14 107 -20 130 -2 8 -7
42 -11 75 -3 33 -10 70 -15 81 -4 12 -6 24 -4 26 2 2 -5 46 -15 98 -11 52 -20
122 -20 155 -1 104 -42 149 -140 151 -32 1 -60 0 -62 -2z"/>
<path d="M73 575 c-36 -15 -42 -29 -18 -39 8 -3 15 -2 15 3 0 17 60 33 95 27
41 -8 91 -48 93 -73 1 -30 -19 -72 -38 -78 -10 -3 -24 -12 -30 -20 -10 -12 -7
-17 16 -27 34 -15 120 -70 152 -98 23 -19 42 -19 42 0 0 5 -24 22 -52 39 -29
17 -64 40 -77 51 l-24 21 22 45 c37 74 10 130 -74 153 -52 14 -83 13 -122 -4z"/>
<path d="M684 552 c-33 -22 -11 -97 35 -122 12 -6 21 -17 21 -25 0 -18 -38
-45 -55 -39 -17 7 -30 -15 -17 -28 13 -13 88 8 96 28 14 37 6 65 -24 82 -50
28 -53 89 -4 79 30 -5 40 19 11 27 -29 8 -50 7 -63 -2z"/>
<path d="M875 536 c-9 -14 -15 -37 -13 -52 2 -21 12 -30 47 -44 70 -27 81 -90
15 -90 -24 0 -34 -5 -34 -15 0 -34 77 -4 87 34 8 31 -16 75 -42 80 -30 5 -45
21 -45 47 0 31 17 39 41 18 18 -16 19 -16 19 2 0 46 -50 59 -75 20z"/>
<path d="M112 506 c-12 -7 -20 -14 -18 -17 3 -3 8 -27 12 -55 9 -74 11 -85 22
-132 12 -50 16 -57 33 -47 8 5 9 25 5 64 -4 31 -9 81 -13 111 -9 82 -13 91
-41 76z"/>
<path d="M443 498 c-42 -20 -47 -125 -8 -168 43 -48 143 -9 147 57 4 70 -8 88
-69 109 -44 16 -42 16 -70 2z m79 -41 c16 -12 22 -29 19 -54 -1 -16 -41 -53
-58 -53 -26 0 -51 84 -31 107 13 16 48 16 70 0z"/>
</g>
</svg>
